<svg class="img-fluid" id="outputsvg" xmlns="http://www.w3.org/2000/svg" style="transform: matrix(0.659101, 0, 0, 0.659101, 0, 0); transform-origin: 50% 50%; cursor: move; transition: transform 200ms ease-in-out;" width="480" height="480" viewBox="0 0 4800 4800"><g id="l4fXYKpaNo6lDy0t6iCRb2t" fill="rgb(5,3,4)" style="transform: none;"><g style="transform: none;"><path id="pGeNtfHKA" d="M0 2400 l0 -2400 2400 0 2400 0 0 2400 0 2400 -2400 0 -2400 0 0 -2400z m2450 1370 c0 -32 94 -127 130 -132 18 -2 26 -10 28 -28 2 -17 100 -122 320 -342 252 -253 322 -318 343 -318 28 0 69 -46 69 -77 0 -10 51 -68 112 -130 104 -104 116 -113 150 -113 37 0 38 -1 38 -37 0 -33 10 -47 95 -134 l95 -96 0 -669 0 -669 -422 423 c-334 334 -427 422 -447 422 -32 1 -61 22 -61 44 0 9 -8 16 -17 16 -22 0 -63 39 -63 61 0 10 -13 31 -30 47 -16 17 -30 37 -30 44 0 8 -57 71 -126 140 l-125 125 -107 1 -107 1 -17 -29 c-9 -17 -29 -35 -43 -40 -14 -5 -28 -18 -32 -27 -9 -25 -44 -63 -59 -63 -7 0 -16 -9 -19 -21 -4 -11 -20 -28 -36 -38 -29 -18 -199 -179 -199 -188 0 -3 -11 -14 -25 -24 -14 -12 -27 -35 -31 -57 -8 -48 -30 -82 -52 -82 -10 0 -34 -12 -53 -26 -19 -14 -44 -30 -57 -35 -12 -5 -26 -19 -31 -31 -5 -13 -18 -32 -30 -42 -13 -12 -21 -31 -21 -51 0 -41 -20 -58 -70 -59 -35 -1 -49 -11 -179 -139 -134 -131 -141 -140 -141 -178 0 -39 0 -39 -38 -39 -32 0 -45 -8 -95 -57 -31 -32 -66 -69 -77 -83 -19 -25 -19 -23 -20 650 l0 675 125 125 c105 105 125 129 125 155 0 23 7 35 29 48 16 9 37 17 47 17 10 0 35 17 56 37 29 28 38 45 38 70 0 31 2 33 32 33 30 0 60 27 300 267 192 192 268 274 268 290 0 17 6 23 23 23 27 0 80 52 105 101 9 19 26 36 37 37 36 7 95 73 95 107 0 34 26 57 75 65 22 4 31 11 33 28 2 14 10 22 23 22 10 0 24 9 31 19 11 18 13 18 25 3 7 -9 13 -28 13 -42z"></path></g></g><g id="l2HMkH2yfc7z80PDJ9ZTKC3" fill="rgb(19,10,14)" style="transform: none;"><g style="transform: none;"><path id="pOZNqsExy" d="M2388 3845 c-12 -14 -29 -25 -39 -25 -11 0 -19 -9 -21 -22 -2 -17 -11 -24 -35 -28 -44 -7 -86 -45 -78 -71 4 -11 1 -26 -5 -34 -10 -13 -8 -15 17 -15 21 0 40 12 71 43 23 23 42 48 42 55 0 7 6 12 14 12 8 0 21 9 29 20 14 19 14 19 37 -5 26 -28 93 -38 71 -11 -7 8 -11 20 -10 28 3 24 -1 34 -21 56 -27 29 -45 28 -72 -3z"></path><path id="p1HvLoorfS" d="M2560 3663 c0 -37 37 -73 74 -73 22 0 26 3 18 13 -5 6 -12 23 -14 37 -2 18 -10 26 -28 28 -14 2 -31 9 -37 14 -10 8 -13 3 -13 -19z"></path><path id="pZSRSv3p7" d="M2150 3609 c-8 -4 -23 -10 -32 -13 -9 -3 -26 -23 -37 -46 l-19 -40 27 0 c37 0 84 49 79 83 -2 18 -7 22 -18 16z"></path><path id="pn1WaBzOG" d="M1955 3450 c4 -19 2 -36 -5 -45 -10 -13 -8 -15 17 -15 36 0 63 27 63 63 0 25 -2 26 -21 15 -17 -10 -23 -10 -26 0 -3 6 -11 12 -20 12 -11 0 -13 -7 -8 -30z"></path><path id="p1BpsCVquH" d="M3250 2975 c0 -42 73 -115 114 -115 23 0 27 3 18 12 -7 7 -12 20 -12 30 0 32 -41 78 -70 78 -14 0 -31 5 -38 12 -9 9 -12 6 -12 -17z"></path><path id="pDK7K51Es" d="M1437 2892 c-5 -7 -17 -10 -28 -7 -10 4 -28 3 -40 0 -17 -6 -20 -12 -15 -37 3 -18 1 -37 -5 -44 -9 -11 -6 -14 18 -14 41 0 86 48 81 86 -2 20 -6 25 -11 16z"></path><path id="pka2QMMzk" d="M1297 2753 c-5 -7 -18 -13 -29 -13 -11 0 -36 -10 -55 -21 -29 -18 -33 -26 -28 -46 3 -14 1 -31 -6 -39 -9 -11 -6 -14 18 -14 42 0 116 76 111 116 -2 19 -6 25 -11 17z"></path><path id="pD6UxQ3Uh" d="M3570 2652 c0 -38 56 -92 94 -92 23 0 26 3 17 14 -6 7 -8 26 -5 42 8 39 -27 74 -52 53 -12 -10 -20 -10 -35 -1 -17 11 -19 9 -19 -16z"></path><path id="pxy9fYxGv" d="M958 2413 c-17 -18 -18 -68 -18 -741 0 -397 3 -722 8 -722 4 0 14 6 22 13 13 11 14 101 10 741 -5 694 -6 727 -22 709z"></path><path id="ptPGErZwA" d="M2288 2352 c-38 -37 -68 -73 -68 -80 0 -7 -6 -12 -13 -12 -7 0 -43 -30 -80 -68 -55 -55 -67 -73 -67 -99 l0 -32 44 30 c25 16 48 39 51 49 4 11 12 20 19 20 15 0 50 38 59 63 4 9 18 22 32 27 14 5 34 24 43 40 18 33 11 32 116 14 21 -4 36 -1 41 6 5 8 10 8 21 -1 29 -24 15 44 -16 79 -25 26 -37 32 -72 32 -40 0 -48 -5 -110 -68z"></path><path id="pqGnMvTh" d="M3818 1699 c-3 -676 -2 -721 15 -736 9 -9 19 -14 22 -11 3 3 5 325 5 717 1 696 -2 751 -30 751 -6 0 -11 -273 -12 -721z"></path><path id="pCWQoyr1U" d="M2713 2086 c9 -7 17 -21 17 -30 0 -10 14 -31 30 -48 17 -16 30 -37 30 -47 0 -22 41 -61 63 -61 9 0 17 -8 17 -17 0 -20 63 -69 68 -53 5 15 23 12 38 -7 12 -16 13 -15 14 14 0 26 -17 49 -111 147 -103 107 -114 116 -148 116 -32 -1 -34 -2 -18 -14z"></path><path id="plPnLKdib" d="M1877 1943 c-4 -3 -7 -15 -7 -25 0 -10 -6 -18 -14 -18 -17 0 -196 -172 -196 -189 0 -6 -6 -11 -13 -11 -7 0 -45 -33 -85 -74 -60 -62 -72 -80 -72 -107 0 -24 3 -30 11 -22 8 8 19 8 40 0 25 -10 32 -8 59 18 24 23 30 36 26 56 -4 19 1 32 16 45 11 11 24 29 29 42 5 12 19 26 31 31 13 5 38 21 56 34 19 14 40 23 47 21 19 -8 51 40 59 85 4 25 15 47 31 59 14 11 25 23 25 27 0 4 8 14 18 21 15 12 13 13 -19 14 -20 0 -39 -3 -42 -7z"></path><path id="p1DQg5E5JQ" d="M1162 1227 c-23 -24 -32 -42 -32 -67 0 -26 3 -31 12 -22 7 7 29 12 50 12 l38 0 0 45 c0 31 5 47 18 54 14 9 10 10 -19 11 -27 0 -42 -8 -67 -33z"></path></g></g><g id="l23p35y5PxgeskxpC5c6b6R" fill="rgb(134,78,193)" style="transform: none;"><g style="transform: none;"><path id="pDcZVL1iO" d="M1915 1996 c-9 -14 -15 -39 -13 -57 l3 -33 60 57 60 56 -47 1 c-40 0 -50 -4 -63 -24z"></path><path id="pLULuQS6h" d="M2890 1913 c8 -10 67 -71 132 -136 l118 -119 0 39 c0 48 -23 83 -56 83 -16 0 -24 6 -24 18 0 28 -29 62 -53 62 -17 0 -25 8 -32 33 -9 29 -14 32 -54 35 -42 3 -44 2 -31 -15z"></path><path id="pUcfRNh5g" d="M1434 1542 c-10 -10 -27 -21 -36 -25 -14 -5 -18 -17 -17 -49 1 -84 8 -85 80 -11 101 105 100 103 42 103 -34 0 -55 -6 -69 -18z"></path><path id="phYwPlsgH" d="M3320 1475 c62 -62 76 -72 82 -58 28 72 -21 133 -106 133 l-50 0 74 -75z"></path><path id="p3XZUvyE5" d="M1274 1366 c-3 -7 -4 -32 -2 -54 l3 -40 55 54 55 54 -53 0 c-36 0 -54 -4 -58 -14z"></path><path id="p1CdMlQcXt" d="M3555 1240 l60 -61 3 42 c4 57 -17 79 -77 79 l-45 0 59 -60z"></path><path id="pfOWFeL4X" d="M1066 1159 c-3 -17 -6 -47 -6 -66 l0 -35 41 39 c22 21 50 50 61 66 l19 27 -54 0 c-53 0 -55 -1 -61 -31z"></path><path id="p12lZYNkvy" d="M3780 1015 c30 -30 58 -55 62 -55 13 0 9 85 -4 98 -7 7 -35 12 -62 12 l-50 0 54 -55z"></path><path id="p16czZBEIZ" d="M972 1037 c-23 -25 -30 -77 -10 -77 13 0 88 76 88 90 0 20 -57 10 -78 -13z"></path></g></g><g id="l4ynRvZd6mx0YfvIwkVkPV8" fill="rgb(215,122,94)" style="transform: none;"><g style="transform: none;"><path id="pSkwNmTMq" d="M2625 3597 c-4 -15 -4 -43 0 -63 l6 -36 50 4 c37 4 49 2 49 -9 0 -7 -7 -16 -15 -19 -21 -8 -20 -70 1 -78 27 -10 74 -7 75 7 1 6 5 -9 9 -35 11 -63 55 -118 95 -118 17 0 40 8 53 18 l22 17 -169 169 c-163 163 -170 168 -176 143z"></path><path id="prqRu9RK" d="M1942 3397 c-60 -60 -57 -67 24 -67 l44 0 -1 38 c-1 20 -4 47 -7 60 -7 22 -10 20 -60 -31z"></path></g></g><g id="l5IEivKS7fiKYAe5JyvhX81" fill="rgb(154,88,196)" style="transform: none;"><g style="transform: none;"><path id="ppGoVy5Rt" d="M3100 1728 c0 -22 49 -84 118 -151 45 -44 65 -58 83 -55 20 2 24 9 26 43 3 36 -3 46 -55 104 -57 62 -60 64 -115 69 -46 4 -57 2 -57 -10z"></path></g></g><g id="l6GYWnDmRDujwkk0dmSJlX4" fill="rgb(179,103,157)" style="transform: none;"><g style="transform: none;"><path id="pe2GyS8YJ" d="M2387 2433 c-12 -12 -7 -43 7 -43 7 0 73 -61 147 -135 74 -74 141 -135 150 -135 20 0 29 20 29 63 0 37 -47 93 -85 103 -17 4 -25 13 -25 28 0 13 -11 33 -25 46 -14 13 -25 29 -25 37 0 7 -11 13 -24 13 -13 0 -29 7 -36 15 -13 15 -100 22 -113 8z"></path><path id="p12bYvcfmQ" d="M3810 2347 c0 -90 1 -97 20 -97 18 0 20 7 20 78 0 66 -3 82 -20 97 -20 18 -20 17 -20 -78z"></path><path id="p188Nzb9w" d="M2178 2293 c-19 -5 -24 -45 -12 -91 6 -22 7 -22 42 9 19 17 46 44 59 60 l25 29 -49 -1 c-26 -1 -56 -3 -65 -6z"></path></g></g><g id="lxzibTbeRukfdL8wWv4tvv" fill="rgb(166,96,181)" style="transform: none;"><g style="transform: none;"><path id="peNpYflsY" d="M2684 2165 c-4 -8 -13 -15 -22 -15 -18 0 14 -39 61 -72 l27 -19 0 40 c0 57 -51 107 -66 66z"></path><path id="ps1UVUrLG" d="M1983 2120 c-35 -21 -46 -48 -41 -101 3 -30 6 -34 28 -31 15 2 48 27 83 63 50 52 56 62 43 74 -21 21 -75 18 -113 -5z"></path><path id="pszhe2HwU" d="M1728 1917 c-24 -28 -28 -40 -28 -102 0 -113 4 -112 126 11 l108 109 -44 7 c-25 3 -65 7 -90 7 -39 0 -49 -4 -72 -32z"></path></g></g><g id="l7fvoliwznJJLz0qpRP9JYW" fill="rgb(144,84,217)" style="transform: none;"><g style="transform: none;"><path id="pOdzJZb8m" d="M1317 1466 c-30 -27 -37 -41 -37 -70 0 -34 -2 -36 -34 -36 -18 0 -39 -6 -46 -14 -6 -8 -21 -16 -33 -18 -30 -4 -35 -59 -11 -108 l18 -37 59 51 c35 31 61 63 65 81 6 21 15 31 33 33 13 2 39 18 57 35 28 27 32 37 27 64 -4 24 -1 34 12 42 14 8 9 10 -28 11 -38 0 -51 -6 -82 -34z"></path><path id="p18KFLl3F1" d="M3350 1491 c0 -5 6 -11 14 -14 9 -4 12 -14 9 -27 -5 -17 11 -38 73 -101 43 -43 85 -79 94 -79 19 0 40 44 40 83 0 22 -14 42 -61 88 -59 57 -63 59 -115 59 -30 0 -54 -4 -54 -9z"></path><path id="picCJclmQ" d="M3578 1248 c7 -7 12 -19 12 -28 0 -19 127 -147 136 -137 4 4 9 32 12 63 4 50 2 58 -24 85 -25 26 -34 29 -88 29 -47 0 -57 -3 -48 -12z"></path></g></g><g id="lPayoDGEOHfHzOcQaXdVo3" fill="rgb(200,115,138)" style="transform: none;"><g style="transform: none;"><path id="p176OK8YuO" d="M3357 2853 c-12 -67 -8 -90 18 -114 13 -13 25 -34 25 -45 0 -23 23 -34 73 -34 15 0 36 -9 47 -20 20 -20 65 -26 87 -12 9 5 -29 49 -116 136 l-128 128 -6 -39z"></path><path id="p8SHbz2RE" d="M1288 2743 c-101 -101 -107 -109 -88 -121 11 -6 38 -12 61 -12 33 0 47 6 70 31 16 17 29 33 29 36 0 3 9 18 21 34 15 22 19 41 17 84 l-3 56 -107 -108z"></path></g></g><g id="l1IuUkS5wTIFLsh7M9hkxyG" fill="rgb(238,135,82)" style="transform: none;"><g style="transform: none;"><path id="p18OJL4l17" d="M2266 3721 c-122 -122 -127 -129 -115 -152 6 -13 15 -31 19 -39 8 -16 100 -27 129 -14 9 4 41 6 72 5 54 -3 57 -2 64 26 6 25 8 26 19 10 10 -12 27 -17 63 -17 42 0 54 5 81 31 18 17 32 37 32 43 0 11 -220 236 -230 236 -3 0 -63 -58 -134 -129z"></path></g></g><g id="l4shH9QW9JBytTYO99qSfZS" fill="rgb(189,108,160)" style="transform: none;"><g style="transform: none;"><path id="p12t36Quu7" d="M3680 2512 c0 -57 2 -63 24 -72 13 -5 33 -22 46 -39 17 -24 29 -31 56 -31 58 0 46 34 -46 125 l-80 80 0 -63z"></path><path id="pfoxJHnR9" d="M986 2441 c-31 -32 -36 -43 -36 -85 l0 -48 48 7 c75 11 91 35 76 113 -4 17 -15 34 -29 40 -19 9 -27 5 -59 -27z"></path><path id="pE9DP8nuC" d="M2318 2444 c-16 -8 -28 -21 -28 -30 0 -8 -10 -19 -22 -24 -46 -19 -58 -36 -58 -82 0 -44 1 -44 29 -40 19 3 50 24 86 62 32 31 73 63 91 70 36 14 42 28 22 48 -17 17 -87 14 -120 -4z"></path></g></g><g id="l4ERVbp1x6vcgHEyMmo9g1m" fill="rgb(222,126,110)" style="transform: none;"><g style="transform: none;"><path id="paiS0s8Eq" d="M1796 3251 c-97 -97 -108 -112 -96 -126 11 -13 24 -15 54 -11 106 17 128 18 139 7 18 -18 88 -14 103 6 12 17 13 17 20 -2 4 -11 12 -23 18 -27 18 -13 70 -8 90 7 11 8 38 15 60 15 23 0 54 7 70 15 36 19 50 19 67 -1 10 -13 27 -15 79 -12 46 3 81 -1 120 -13 72 -24 95 -24 130 3 28 21 30 21 49 4 16 -14 31 -17 73 -12 29 3 73 5 96 5 24 0 50 5 57 11 20 16 55 3 55 -21 0 -38 112 -19 125 22 6 18 -7 36 -78 107 l-85 85 -26 -17 c-24 -15 -27 -15 -32 -1 -4 9 -14 15 -23 14 -9 -1 -24 2 -35 6 -10 5 -55 3 -100 -4 -44 -7 -104 -12 -133 -12 -28 1 -54 -3 -57 -8 -10 -16 -36 -1 -36 19 0 17 -10 19 -110 19 -84 0 -110 -3 -110 -13 0 -8 -6 -19 -14 -25 -12 -10 -19 -8 -35 8 -16 16 -34 21 -70 21 -28 0 -53 -5 -56 -10 -5 -8 -11 -7 -21 0 -7 7 -35 11 -61 9 -80 -4 -99 0 -109 21 -8 18 -20 9 -118 -89z"></path></g></g><g id="l247BvTF2tiMlzL6v1BEXBy" fill="rgb(215,123,128)" style="transform: none;"><g style="transform: none;"><path id="pMTZiSOUp" d="M3130 3104 c0 -11 -13 -33 -29 -48 l-28 -27 -34 20 c-45 27 -112 28 -146 1 -23 -18 -28 -19 -43 -5 -9 8 -34 15 -54 15 -21 0 -51 7 -66 17 -25 14 -39 15 -131 4 -57 -6 -110 -17 -118 -25 -25 -22 -238 -16 -271 7 -36 25 -82 22 -110 -8 -17 -18 -34 -25 -61 -25 -21 0 -40 4 -43 9 -8 13 -195 12 -217 -2 -15 -9 -22 -7 -42 11 -13 12 -32 22 -42 22 -10 0 -24 8 -31 18 -12 15 -24 6 -128 -98 -63 -62 -113 -116 -110 -119 3 -3 54 -6 115 -7 69 -1 114 -6 124 -14 10 -8 34 -10 77 -5 50 5 67 12 84 31 l21 25 171 -17 c94 -9 179 -13 189 -9 24 10 85 6 100 -7 7 -6 35 -7 65 -4 74 9 161 7 172 -5 13 -12 83 -12 91 1 4 7 42 10 93 10 103 -2 104 -2 302 0 85 0 159 5 164 10 15 15 42 12 56 -5 17 -20 84 -20 101 1 11 13 -3 31 -104 132 -87 87 -117 112 -117 96z"></path></g></g><g id="l31WG798AjPR9L7obg0najs" fill="rgb(237,135,98)" style="transform: none;"><g style="transform: none;"><path id="p8AjmZD6H" d="M2600 3643 c0 -19 -63 -73 -85 -73 -15 0 -28 12 -40 34 -15 28 -22 33 -36 25 -10 -5 -23 -25 -30 -44 -14 -38 -32 -44 -67 -19 -20 14 -24 14 -51 -5 -47 -34 -101 -23 -101 20 0 9 -6 21 -13 27 -10 9 -36 -12 -111 -87 -92 -92 -98 -101 -93 -130 6 -27 4 -31 -14 -31 -11 0 -17 -5 -14 -10 9 -14 85 -13 85 1 0 11 46 59 56 59 3 0 14 -9 26 -20 18 -17 35 -19 124 -19 78 0 105 4 115 15 10 13 14 13 28 0 9 -8 47 -18 84 -22 60 -6 72 -4 97 15 24 17 43 21 110 21 89 0 120 10 120 40 0 26 -17 26 -25 1 -4 -13 -12 -18 -22 -14 -14 5 -14 7 1 15 43 24 -9 107 -59 94 -16 -4 -24 -3 -21 3 4 5 2 12 -3 15 -5 3 -7 14 -5 24 3 10 -7 29 -25 46 -17 17 -31 25 -31 19z"></path></g></g><g id="l29QMP1Z0muYp5EjsOXSpfO" fill="rgb(148,86,236)" style="transform: none;"><g style="transform: none;"><path id="pnjq49N1H" d="M3670 1343 c-20 -2 -53 -18 -77 -37 l-42 -33 23 -22 c12 -11 35 -21 51 -21 33 0 85 -44 85 -72 0 -10 -4 -18 -9 -18 -16 0 1 -44 28 -73 14 -15 36 -27 48 -27 13 0 28 -9 35 -20 7 -11 19 -20 26 -20 10 0 12 37 10 172 l-3 173 -70 1 c-38 1 -86 -1 -105 -3z"></path><path id="pfMzeLeWT" d="M950 1134 c0 -96 2 -174 3 -174 2 0 34 29 70 64 46 45 68 74 72 97 5 27 11 34 31 35 28 2 74 40 74 61 0 8 -7 25 -16 38 -18 27 -10 49 14 40 9 -3 13 -2 8 2 -4 4 -64 9 -132 9 l-124 2 0 -174z"></path></g></g><g id="l1Mo65rwT9Bu8HP5Wp5g5Xy" fill="rgb(202,116,153)" style="transform: none;"><g style="transform: none;"><path id="pEBbOsPn2" d="M1680 2680 c-13 -17 -30 -19 -155 -21 -77 0 -160 2 -184 6 -35 6 -46 4 -53 -9 -11 -19 -31 -20 -58 -4 -18 12 -27 6 -82 -50 -55 -54 -61 -64 -50 -80 6 -9 16 -27 21 -39 9 -19 17 -21 93 -22 48 0 91 5 103 13 33 20 131 13 165 -12 33 -25 82 -29 102 -9 32 32 84 49 143 46 65 -3 261 -2 285 1 26 3 134 -28 138 -39 5 -15 76 -14 105 1 68 35 73 35 124 8 21 -11 55 -20 75 -20 31 0 38 4 38 19 0 28 20 37 27 12 4 -18 13 -21 54 -21 27 0 58 4 69 10 11 5 28 14 38 19 9 4 31 6 47 4 17 -3 73 0 125 6 79 9 97 8 110 -4 9 -8 26 -15 38 -15 11 0 24 -4 27 -10 3 -5 30 -10 60 -10 49 0 54 2 66 29 l13 29 29 -28 c20 -20 44 -30 78 -35 60 -8 129 2 136 21 7 19 82 18 107 -1 27 -20 85 -19 108 2 14 13 21 14 30 5 7 -7 24 -12 38 -12 24 0 26 3 22 38 -3 29 -16 50 -61 95 -36 37 -62 56 -73 54 -9 -3 -19 2 -22 10 -3 7 -11 13 -18 12 -7 -2 -31 3 -53 9 -55 16 -96 15 -124 -4 -17 -12 -26 -13 -34 -5 -13 13 -79 15 -92 2 -6 -5 -95 -12 -200 -17 -297 -11 -301 -11 -322 9 -27 24 -76 22 -99 -4 -17 -19 -25 -20 -94 -14 -41 4 -115 8 -164 9 -60 1 -91 6 -94 14 -5 16 -106 16 -133 0 -17 -10 -23 -10 -26 0 -6 15 -57 16 -83 2 -13 -7 -63 -6 -162 5 -173 18 -160 18 -178 -5z"></path></g></g><g id="l6Iq4giwwO8XXgkWBpmnYgf" fill="rgb(186,107,181)" style="transform: none;"><g style="transform: none;"><path id="pxNQcd9TY" d="M1290 2275 c-11 -29 -47 -34 -57 -9 -5 14 -17 15 -77 9 -40 -4 -78 -13 -88 -22 -15 -13 -19 -12 -37 6 -12 12 -34 21 -51 21 l-30 0 0 -135 0 -135 48 0 c26 0 56 7 66 15 30 23 119 20 141 -5 26 -29 105 -28 131 1 l19 21 5 -28 c5 -26 10 -29 49 -32 24 -2 49 2 54 7 6 6 19 11 28 11 10 0 24 7 33 15 11 12 37 16 98 16 82 0 130 -10 143 -30 3 -6 24 -11 47 -11 31 0 41 4 45 20 5 19 37 26 94 21 8 -1 21 10 27 23 13 29 74 65 80 47 7 -22 28 -10 86 48 l58 59 -27 18 c-15 10 -52 19 -83 21 -32 3 -67 9 -78 15 -21 10 -36 9 -145 -7 -30 -5 -49 -3 -53 4 -10 16 -70 14 -112 -4 -34 -14 -38 -13 -61 5 -29 23 -86 26 -130 9 -38 -16 -66 -13 -105 11 -18 11 -50 20 -71 20 -31 0 -39 -4 -47 -25z"></path><path id="p1HYfRs434" d="M3040 2280 c-8 -5 -58 -10 -111 -10 -73 0 -98 -3 -102 -14 -3 -7 -26 -17 -51 -20 -25 -4 -48 -11 -51 -17 -4 -5 -18 -9 -32 -9 -20 0 -23 -3 -14 -14 6 -7 9 -20 5 -29 -3 -9 3 -24 15 -36 12 -12 21 -27 21 -34 0 -7 26 -38 58 -70 l58 -57 22 20 c11 11 33 20 48 20 15 0 35 7 44 15 16 14 19 13 34 -10 15 -22 23 -25 82 -25 44 0 73 5 90 17 22 14 31 15 61 4 25 -9 61 -11 124 -6 74 6 94 4 114 -9 30 -20 93 -21 114 -2 18 15 129 27 137 14 3 -4 36 -8 75 -8 l69 0 0 130 0 130 -25 0 c-14 0 -34 -5 -45 -12 -15 -10 -22 -9 -39 6 -16 15 -29 17 -68 12 -26 -4 -79 -9 -118 -12 -38 -3 -80 -10 -92 -16 -17 -8 -26 -8 -38 2 -22 18 -114 49 -145 49 -14 0 -34 -6 -44 -14 -26 -20 -95 -20 -102 0 -7 17 -70 20 -94 5z"></path></g></g><g id="lLysjb2981PhL32WLh0bbs" fill="rgb(169,98,207)" style="transform: none;"><g style="transform: none;"><path id="p14APFrOX8" d="M3468 1923 c-26 -25 -29 -26 -66 -14 -29 10 -55 11 -106 3 -48 -8 -92 -8 -153 0 -65 9 -89 9 -104 0 -14 -9 -25 -9 -39 -2 -24 13 -90 13 -90 0 0 -5 4 -10 10 -10 5 0 17 -14 25 -30 9 -17 27 -35 41 -40 13 -5 32 -25 41 -45 10 -20 24 -35 34 -35 10 0 25 -10 33 -22 11 -16 27 -23 53 -24 32 -1 44 -9 94 -65 48 -54 56 -68 52 -91 -4 -21 -1 -28 9 -28 8 0 27 -11 42 -25 25 -23 56 -31 111 -27 161 9 209 9 224 0 12 -7 45 -8 94 -3 l77 7 0 213 c0 171 -3 215 -14 224 -8 7 -38 12 -68 12 -127 0 -192 5 -196 17 -2 7 -20 12 -41 12 -26 0 -44 -7 -63 -27z"></path><path id="pXTgVGB8Q" d="M1471 1910 c-29 -25 -122 -28 -145 -5 -15 16 -136 22 -150 8 -4 -4 -35 -6 -69 -5 -42 2 -72 -2 -92 -12 -16 -9 -38 -16 -47 -16 -17 0 -18 -17 -18 -220 l0 -220 27 0 c14 0 45 11 69 25 24 14 45 21 48 16 7 -11 235 -11 242 1 3 4 28 8 55 8 36 0 56 6 71 20 12 11 31 20 43 20 13 0 60 39 127 106 l107 106 -3 56 c-2 32 1 63 6 69 15 18 -13 26 -72 21 -40 -4 -53 -1 -77 18 -35 29 -89 31 -122 4z"></path></g></g><g id="l1X9smyeWgmlytspndpzxUo" fill="rgb(199,114,162)" style="transform: none;"><g style="transform: none;"><path id="poDdqO07W" d="M2471 2543 c-6 -21 -11 -44 -11 -51 0 -15 -33 -8 -65 14 -22 16 -106 19 -133 5 -65 -33 -70 -34 -86 -18 -9 9 -36 19 -61 23 -25 3 -56 15 -69 25 -30 23 -32 23 -62 0 -20 -16 -37 -18 -97 -15 -105 6 -149 11 -178 19 -16 4 -30 2 -33 -4 -4 -6 -15 -11 -25 -11 -21 0 -80 -28 -99 -47 -11 -11 -20 -8 -50 15 -49 38 -64 42 -86 26 -15 -11 -22 -11 -41 2 -20 13 -26 12 -69 -11 -43 -23 -51 -24 -75 -12 -23 12 -31 11 -49 -1 -20 -13 -22 -12 -29 4 -3 11 -14 29 -23 41 l-17 22 -59 -60 c-48 -49 -56 -61 -44 -69 8 -5 18 -10 21 -10 11 0 17 -50 8 -56 -5 -3 -9 -9 -9 -15 0 -15 104 -11 126 6 28 21 44 18 44 -7 0 -31 59 -68 106 -68 21 0 49 9 66 21 23 16 43 21 86 20 44 -1 60 3 78 20 l23 21 29 -21 c21 -15 45 -21 80 -21 28 0 54 -4 57 -10 3 -5 40 -10 81 -10 67 0 77 3 98 25 18 20 33 25 69 25 25 0 49 -5 52 -10 8 -14 235 -11 253 3 6 5 12 6 12 2 0 -5 9 0 20 10 11 10 17 21 14 26 -2 4 10 16 28 25 24 13 36 14 50 5 10 -6 26 -11 36 -11 11 0 27 -9 36 -19 11 -12 25 -17 38 -13 15 3 19 1 14 -6 -10 -16 19 -26 40 -14 11 6 25 6 36 1 10 -5 27 -13 38 -19 11 -5 40 -10 64 -10 25 0 48 -4 51 -10 8 -13 82 -13 90 0 8 13 205 13 336 -1 113 -11 179 -5 179 17 0 14 17 20 86 27 32 4 45 0 57 -13 25 -29 103 -37 141 -14 22 13 46 18 83 16 50 -3 93 10 93 27 0 13 -74 91 -85 91 -6 0 -18 8 -26 18 -40 43 -88 68 -89 45 0 -5 -12 -16 -26 -26 -24 -18 -26 -18 -52 -1 -18 12 -48 18 -89 19 -62 2 -85 -4 -84 -21 1 -14 -46 -23 -83 -17 -18 3 -50 20 -70 39 -48 44 -71 44 -92 -1 -12 -25 -23 -35 -40 -35 -12 0 -26 5 -29 10 -3 6 -15 10 -26 10 -11 0 -35 11 -53 25 -38 29 -53 30 -81 10 -13 -10 -30 -13 -53 -9 -20 4 -43 1 -58 -7 -21 -11 -29 -10 -55 5 -28 17 -30 17 -58 -3 -16 -12 -36 -21 -44 -21 -9 0 -19 -4 -22 -10 -9 -14 -55 -13 -55 2 0 15 -48 78 -60 78 -5 0 -14 -17 -19 -37z"></path></g></g><g id="l2iTECSciR2SZB1N7tqZGJM" fill="rgb(208,119,148)" style="transform: none;"><g style="transform: none;"><path id="p1GbUKlAwe" d="M3203 2835 c-15 -10 -54 -16 -121 -19 -54 -2 -109 -9 -122 -16 -15 -8 -29 -9 -44 -2 -45 20 -94 32 -133 32 -32 0 -42 -5 -53 -25 -15 -29 -57 -34 -93 -11 -28 18 -192 32 -201 18 -9 -15 -106 -3 -127 14 -28 25 -71 17 -110 -21 -36 -34 -37 -34 -54 -15 -13 15 -31 20 -65 20 -26 0 -50 -3 -53 -7 -12 -11 -131 -7 -154 5 -12 7 -56 15 -97 18 -66 6 -77 5 -102 -15 -18 -14 -31 -18 -38 -12 -6 6 -69 10 -139 10 -125 1 -127 0 -127 -22 0 -12 -9 -33 -20 -47 -11 -14 -20 -28 -20 -32 0 -4 -11 -19 -26 -33 -28 -28 -23 -50 9 -41 11 3 32 -1 46 -8 14 -7 40 -11 56 -10 17 2 86 5 154 7 110 4 127 7 141 25 11 13 21 17 30 12 8 -5 17 -7 22 -4 13 8 207 -15 227 -28 15 -9 24 -7 47 11 15 12 30 18 33 14 3 -4 16 -17 29 -27 22 -19 22 -19 47 4 23 22 85 36 85 20 0 -4 15 -17 34 -28 34 -20 35 -20 52 -1 19 22 68 25 111 8 15 -6 66 -11 113 -10 68 2 89 6 105 21 19 18 22 18 37 4 21 -21 153 -38 180 -23 12 6 38 8 59 5 21 -3 40 -2 44 4 8 14 58 13 90 -2 21 -9 31 -9 46 0 15 10 23 9 39 0 16 -10 24 -10 41 0 15 10 25 10 32 3 7 -7 19 -4 39 11 l29 20 23 -21 c28 -27 35 -26 76 4 37 28 67 26 113 -6 21 -15 31 -17 47 -9 11 6 20 17 20 24 0 17 -47 49 -61 41 -17 -11 -68 5 -63 19 3 8 -9 29 -25 47 -17 18 -31 37 -31 42 0 5 -14 7 -31 5 -23 -4 -34 1 -49 19 -21 27 -65 31 -97 8z"></path></g></g><g id="l2W4ZFhjDe85L2upUrnue8" fill="rgb(214,123,138)" style="transform: none;"><g style="transform: none;"><path id="p5DD9BnnK" d="M1803 2912 c-36 -40 -88 -45 -127 -14 -25 19 -30 20 -49 7 -18 -12 -24 -12 -48 2 -25 15 -31 15 -55 3 -15 -8 -38 -13 -51 -12 -34 5 -103 -61 -103 -99 0 -25 1 -26 49 -21 27 2 64 0 81 -6 22 -8 38 -8 56 0 19 9 30 9 45 0 29 -18 73 -14 103 9 19 15 35 19 54 15 15 -3 39 -8 54 -9 15 -2 36 -11 48 -22 18 -16 25 -17 60 -6 42 13 51 10 87 -21 21 -20 21 -20 35 9 18 39 47 40 82 4 32 -34 43 -31 105 26 34 30 37 31 54 15 10 -9 35 -18 55 -19 20 -1 52 -5 70 -9 25 -5 38 -2 53 12 20 18 22 18 51 1 22 -13 34 -14 49 -6 15 8 27 6 53 -10 45 -28 128 -20 147 15 7 13 17 24 22 24 14 0 77 -20 99 -31 10 -5 25 -9 33 -9 8 0 15 -4 15 -10 0 -16 29 -11 49 9 22 22 144 39 164 22 16 -13 54 -4 85 20 23 18 24 18 48 -10 13 -16 24 -34 24 -40 0 -16 8 -14 37 9 17 13 34 18 47 14 16 -5 18 -4 9 6 -7 7 -9 27 -6 47 5 28 1 39 -22 63 -27 28 -30 29 -47 13 -17 -15 -19 -15 -38 2 -20 18 -89 23 -112 8 -12 -7 -86 -12 -220 -15 -26 -1 -53 4 -60 10 -13 10 -92 2 -105 -11 -3 -4 -20 0 -38 7 -21 9 -37 10 -48 4 -11 -5 -23 -5 -34 1 -13 7 -25 4 -45 -11 -25 -17 -30 -18 -49 -5 -11 8 -29 13 -39 10 -11 -3 -34 0 -52 6 -26 9 -41 8 -80 -6 -43 -15 -49 -15 -65 -1 -21 18 -130 23 -150 7 -8 -7 -23 -8 -40 -3 -16 4 -46 9 -68 10 -67 5 -137 12 -192 19 -50 6 -54 5 -80 -23z"></path></g></g><g id="l2D7XSczIFmQlJfRYUq0mee" fill="rgb(157,91,227)" style="transform: none;"><g style="transform: none;"><path id="pcDwV8vNp" d="M1480 1550 c0 -16 -79 -35 -92 -22 -17 17 -36 15 -68 -8 -23 -17 -33 -18 -56 -10 -19 8 -42 8 -75 1 -37 -8 -53 -7 -77 5 -29 14 -34 13 -96 -18 l-65 -33 0 -92 -1 -91 67 -7 c38 -4 74 -11 82 -15 9 -5 29 1 53 16 21 14 42 22 47 20 5 -3 16 3 25 13 9 10 28 19 41 19 36 -1 57 21 50 49 -7 28 34 72 94 100 20 10 44 24 54 33 9 8 26 17 37 20 20 5 20 5 0 18 -11 7 -20 8 -20 2z"></path><path id="pRyOrsPHs" d="M3480 1515 c-7 -8 -20 -15 -29 -15 -9 0 -23 -5 -31 -10 -13 -8 -11 -12 10 -27 14 -9 47 -39 74 -66 35 -36 45 -52 37 -60 -6 -6 -11 -23 -11 -37 0 -18 8 -29 30 -38 27 -12 32 -11 67 16 60 47 205 56 216 14 3 -9 5 34 6 97 l1 114 -70 -6 c-39 -3 -72 -2 -75 4 -4 5 -19 9 -34 9 -15 0 -32 5 -38 11 -8 8 -20 7 -44 -5 -29 -14 -35 -15 -55 -1 -29 19 -38 19 -54 0z"></path></g></g><g id="l4dnKqJUdm8Aff2SyAceP36" fill="rgb(193,111,172)" style="transform: none;"><g style="transform: none;"><path id="polI4k9Bs" d="M1165 2413 c-10 -3 -29 -12 -42 -20 -13 -9 -34 -13 -48 -11 -16 3 -30 -1 -41 -13 -10 -11 -25 -19 -35 -19 -39 0 -49 -11 -49 -56 0 -32 4 -44 14 -44 8 0 30 -13 48 -30 18 -16 36 -30 39 -30 4 0 21 12 38 26 18 15 38 24 47 20 8 -3 24 -1 36 5 15 8 23 7 31 -3 7 -7 22 -22 34 -32 21 -17 22 -17 52 5 17 13 31 28 31 35 0 24 21 26 56 5 51 -31 106 -37 154 -17 54 21 54 21 100 -20 l41 -37 22 21 c12 11 35 26 51 32 25 9 32 8 52 -11 20 -19 28 -21 49 -11 14 7 27 8 30 2 3 -5 24 0 47 12 32 17 44 19 59 10 10 -7 40 -12 67 -12 28 0 64 -8 87 -20 47 -24 70 -12 61 31 -4 23 -1 28 19 33 18 5 25 13 25 32 0 15 11 35 28 49 19 18 23 24 11 25 -9 0 -24 9 -33 19 -18 19 -44 18 -58 -2 -9 -14 -125 -20 -133 -7 -3 5 -16 10 -29 10 -12 0 -27 5 -33 11 -9 9 -19 9 -41 0 -16 -7 -33 -11 -39 -9 -6 2 -23 -10 -37 -25 -22 -24 -29 -27 -42 -16 -11 9 -20 9 -41 0 -22 -10 -29 -9 -50 10 -18 18 -26 20 -35 11 -20 -20 -57 -14 -103 18 -44 30 -61 36 -67 23 -2 -5 -15 -19 -30 -32 -24 -21 -28 -22 -48 -8 -19 13 -25 13 -53 -1 -18 -8 -41 -20 -52 -25 -11 -6 -27 -14 -36 -20 -11 -7 -26 -3 -52 14 -30 19 -36 29 -32 47 4 15 1 22 -9 22 -8 0 -20 2 -28 4 -7 2 -22 1 -33 -1z"></path><path id="p1AdJanweN" d="M2555 2398 c-34 -19 -35 -32 -4 -64 16 -17 29 -35 28 -40 -4 -22 3 -32 26 -38 13 -3 41 -24 60 -45 35 -38 59 -43 90 -21 18 13 55 18 61 9 10 -18 32 -9 38 16 6 23 10 25 71 25 35 0 67 -4 70 -10 10 -16 33 -12 64 11 l28 21 28 -26 c29 -27 50 -33 60 -16 3 6 17 7 30 4 16 -4 34 1 51 13 25 18 28 18 74 3 27 -9 65 -29 85 -44 l36 -28 26 23 c20 20 36 24 86 24 34 0 77 7 95 14 27 11 35 11 48 0 9 -7 31 -19 50 -25 29 -10 36 -9 50 7 9 11 24 19 32 19 11 0 13 8 8 38 -3 20 -6 58 -6 84 0 41 -3 47 -22 50 -13 2 -34 -3 -46 -11 -19 -11 -28 -12 -43 -3 -27 17 -49 15 -94 -11 -46 -27 -79 -23 -115 13 -13 13 -28 19 -38 15 -9 -3 -37 -8 -62 -11 -74 -9 -90 -14 -90 -29 0 -17 -17 -19 -110 -15 -35 1 -74 9 -85 16 -12 8 -24 12 -27 8 -10 -9 -112 -10 -125 -1 -7 5 -18 5 -25 1 -18 -12 -80 -12 -96 0 -9 6 -20 2 -37 -14 l-24 -22 -31 22 c-27 19 -35 21 -54 10 -16 -8 -29 -9 -42 -2 -11 5 -33 17 -51 26 -36 19 -41 19 -68 4z"></path></g></g><g id="l3SGZgOM5SEXk4sQ7U7tbKy" fill="rgb(180,104,192)" style="transform: none;"><g style="transform: none;"><path id="pX1ZSUqr6" d="M1322 2064 c-47 -40 -61 -42 -90 -11 -20 21 -31 24 -95 23 -51 -1 -81 -6 -100 -19 -14 -9 -40 -17 -57 -17 l-30 0 0 -95 0 -95 33 0 c17 0 45 7 61 15 36 19 70 19 86 0 16 -20 26 -19 60 5 36 26 87 22 120 -8 29 -25 33 -26 59 -10 14 8 26 9 42 2 24 -11 65 3 101 34 16 13 22 11 62 -22 49 -40 67 -44 87 -20 8 10 22 14 40 10 22 -4 33 1 58 31 26 30 35 34 58 29 50 -13 87 -7 103 15 8 12 25 32 36 44 15 16 21 34 19 57 -2 32 -4 33 -47 34 -24 1 -54 7 -66 13 -29 15 -45 5 -38 -24 8 -31 -13 -43 -33 -19 -11 13 -32 20 -65 23 -28 2 -59 9 -71 17 -18 12 -24 12 -41 -1 -10 -8 -40 -15 -66 -15 -27 0 -48 -4 -48 -10 0 -5 -12 -13 -27 -16 -16 -4 -34 -11 -40 -16 -16 -13 -47 -2 -38 12 10 16 -3 57 -19 63 -8 3 -32 -10 -54 -29z"></path><path id="pEuGGLDV3" d="M2936 2065 c-20 -14 -48 -25 -62 -25 -14 0 -35 -9 -46 -20 l-22 -20 47 -48 c36 -37 64 -54 113 -70 63 -21 67 -21 94 -5 22 12 32 14 42 5 8 -6 24 -8 37 -5 14 4 32 -2 50 -15 26 -19 30 -19 50 -6 33 23 115 33 143 18 39 -22 75 -16 113 17 l35 31 30 -31 c17 -17 33 -31 35 -31 3 0 19 9 34 21 27 20 30 20 59 5 36 -19 73 -21 89 -5 15 15 60 -15 66 -44 3 -12 4 28 3 88 -1 90 -4 110 -16 111 -8 0 -23 4 -33 8 -10 5 -23 3 -32 -4 -13 -11 -20 -9 -38 9 -27 25 -50 27 -67 6 -8 -9 -30 -15 -60 -15 -30 0 -52 -6 -60 -15 -16 -20 -26 -19 -59 5 -26 17 -36 18 -122 9 -88 -9 -95 -8 -122 12 -20 14 -32 18 -39 11 -6 -6 -16 -8 -24 -5 -7 3 -27 -5 -43 -16 -17 -12 -45 -21 -65 -21 -31 0 -40 5 -57 35 -12 19 -24 35 -29 35 -4 0 -24 -11 -44 -25z"></path></g></g><g id="lasUk8gRPJ4VYW0bwrbefN" fill="rgb(224,128,124)" style="transform: none;"><g style="transform: none;"><path id="p19B7GV3cJ" d="M1971 3163 c-18 -22 -25 -25 -44 -15 -37 18 -137 22 -162 6 -19 -13 -24 -13 -35 1 -12 14 -19 11 -61 -31 -45 -44 -47 -48 -33 -69 9 -15 22 -21 33 -18 12 3 28 -8 49 -33 29 -34 33 -36 49 -23 41 34 71 43 98 29 19 -10 33 -11 60 -3 20 7 37 7 41 2 3 -5 35 -9 72 -9 57 0 69 3 93 26 l26 25 30 -25 c24 -20 38 -24 74 -21 24 1 52 6 62 10 9 4 23 3 30 -3 19 -15 134 -8 154 10 10 8 24 13 31 11 7 -3 19 0 27 7 9 7 26 9 45 5 19 -4 36 -2 46 6 13 10 21 9 47 -6 18 -11 46 -18 66 -16 23 1 41 -5 57 -20 20 -19 26 -20 57 -10 20 7 41 19 47 27 18 20 42 17 84 -11 48 -33 68 -32 111 6 45 40 45 66 -4 113 -37 36 -39 37 -46 16 -4 -11 -18 -25 -32 -31 -32 -12 -36 -12 -30 5 3 8 -8 23 -26 36 l-31 23 -39 -21 c-32 -17 -43 -19 -63 -10 -20 9 -31 8 -54 -5 -34 -21 -49 -21 -69 -3 -31 27 -74 28 -105 3 l-30 -24 -77 27 c-67 24 -80 26 -96 14 -26 -19 -51 -17 -81 6 -28 23 -60 21 -121 -7 -26 -12 -39 -13 -58 -4 -20 9 -29 7 -56 -13 -36 -27 -45 -25 -66 17 -18 34 -44 35 -70 0z"></path></g></g><g id="l7YTxIvKc0maYn8DPCfrTLa" fill="rgb(235,134,107)" style="transform: none;"><g style="transform: none;"><path id="p1BtDQQxZr" d="M2114 3449 c-3 -6 -18 -9 -32 -6 -19 4 -33 -3 -54 -23 -15 -16 -28 -33 -28 -39 0 -14 -34 -23 -62 -16 -33 8 -61 -23 -52 -59 5 -20 11 -25 25 -21 10 3 29 -1 43 -10 22 -15 27 -15 56 0 29 15 32 15 61 -6 l30 -21 23 21 c32 30 53 26 96 -20 l38 -41 26 35 c14 18 26 40 26 47 0 9 8 10 28 5 37 -9 61 -9 100 0 27 6 32 5 32 -10 0 -37 65 -60 89 -31 10 12 16 12 37 1 21 -11 30 -10 54 2 16 7 55 18 86 23 47 8 61 7 74 -5 21 -19 66 -19 74 0 3 8 -6 28 -20 45 -14 16 -22 30 -18 30 4 0 3 5 -4 12 -7 7 -12 24 -12 38 0 27 -27 60 -48 60 -6 0 -13 -8 -16 -18 -5 -16 -13 -17 -54 -12 -26 4 -55 11 -65 15 -10 4 -23 2 -31 -5 -11 -8 -20 -8 -35 -1 -26 14 -31 14 -31 -3 0 -8 -10 -22 -22 -30 -28 -20 -94 -11 -124 15 -27 25 -52 24 -80 -2 -18 -17 -28 -19 -51 -12 -18 6 -40 6 -60 0 -42 -13 -87 7 -80 35 6 20 -8 25 -19 7z"></path></g></g></svg>